<?xml version="1.0" encoding="utf-8"?>
<!-- Generator: Adobe Illustrator 27.0.1, SVG Export Plug-In . SVG Version: 6.00 Build 0)  -->
<svg version="1.1" id="Layer_1" xmlns="http://www.w3.org/2000/svg" xmlns:xlink="http://www.w3.org/1999/xlink" x="0px" y="0px"
	 viewBox="0 0 700 700" style="enable-background:new 0 0 700 700;" xml:space="preserve">
<g>
	<path d="M154.3,518h391.4v-50.4c-20.2-5-56-30.2-56-156.2c0-95.8-64.4-128.8-105.8-140.6c3.4-5.6,5-11.8,5-18.5
		c0-20.7-17.4-37.5-38.1-37.5s-38.1,16.8-38.1,37.5c0,6.7,1.7,12.9,5,18.5C276.4,182,212,215.6,212,311.4c0,126-35.8,151.2-56,156.2
		l0,50.4H154.3z"/>
	<path d="M349.7,585.2c26.9,0,49.3-21.8,53.2-50.4H296.5C300.4,563.4,322.8,585.2,349.7,585.2L349.7,585.2z"/>
</g>
</svg>
